<?xml version="1.0" encoding="utf-8"?>
<!-- Generator: Adobe Illustrator 16.0.0, SVG Export Plug-In . SVG Version: 6.00 Build 0)  -->
<!DOCTYPE svg PUBLIC "-//W3C//DTD SVG 1.1//EN" "http://www.w3.org/Graphics/SVG/1.1/DTD/svg11.dtd">
<svg version="1.1" id="Capa_1" xmlns="http://www.w3.org/2000/svg" xmlns:xlink="http://www.w3.org/1999/xlink" x="0px" y="0px"
		width="560.978px" height="560.978px" viewBox="0 0 560.978 560.978" enable-background="new 0 0 560.978 560.978"
		xml:space="preserve">
	<rect x="82.152" y="82.152" transform="matrix(0.71 -0.7042 0.7042 0.71 -116.179 278.8615)" fill="#FFFFFF" width="396.674" height="396.674"/>
	<g transform="translate(0.000000,1222.000000) scale(0.100000,-0.100000)">
		<path d="M3994.262,8665.858l59.844-21.992c32.988-11.963,64.697-22.002,70.518-22.314c23.291-0.322,37.52,21.67,28.467,43.018
			c-5.82,13.916-6.152,14.238-63.721,34.932c-25.557,9.062-47.881,17.793-49.17,19.082c-1.289,1.299,6.797,15.84,18.115,32.676
			c11.318,16.807,26.855,41.406,34.287,54.658c7.764,13.262,14.873,25.557,16.172,26.846c1.289,1.289,33.643-2.588,71.484-8.74
			c62.432-10.02,70.195-10.664,79.893-6.777c21.67,9.043,25.234,42.041,6.143,54.336c-4.199,2.91-33.955,9.385-66.631,14.873
			c-32.344,5.176-59.502,10.352-60.488,11.338c-0.957,0.635,2.91,15.186,8.418,31.689c27.49,84.102,33.965,127.441,33.965,227.393
			c0,69.219-0.977,87.012-7.119,122.588c-7.764,44.961-15.527,78.281-28.457,120.654l-8.096,26.836l12.939,58.877
			c58.223,265.234,93.809,474.834,112.236,665.674c8.086,81.187,8.086,228.042,0.332,277.529
			c-19.414,122.266-64.385,169.487-154.297,162.051c-128.086-10.669-317.627-139.087-589.668-399.473l-67.92-65.015l-37.529,16.177
			c-112.549,47.549-262.314,87.329-390.078,103.828c-105.771,13.267-257.48,14.878-354.194,3.882
			c-160.107-18.765-308.579-58.55-448.955-120.654c-21.997-9.702-41.079-17.139-42.695-16.489
			c-1.299,0.645-34.287,31.045-73.105,67.925c-216.064,203.779-372.944,316.987-500.063,360.332
			c-34.609,11.646-38.818,12.29-76.982,12.617c-36.553,0-42.051-0.649-56.606-8.091c-61.782-30.083-88.95-110.615-90.244-265.234
			c-0.972-126.475,14.229-272.354,49.81-481.953c13.911-80.215,54.019-283.027,72.129-362.598l10.674-47.549l-10.342-41.406
			c-35.586-143.926-31.055-286.895,13.906-421.133c7.764-23.936,13.911-43.672,13.257-44.316
			c-0.645-0.654-38.809-7.119-85.063-14.561c-46.255-7.119-88.311-14.873-93.164-16.826c-9.697-3.877-18.433-17.451-18.433-28.457
			c0-11.318,8.735-24.902,19.409-29.111c8.735-3.555,21.67-2.266,104.478,11.006c52.075,8.086,96.709,14.863,99.946,14.863
			s11.318-10.342,20.698-26.182c8.413-14.561,23.291-37.207,32.676-50.469c9.38-13.262,17.139-25.225,17.139-26.523
			s-29.434-13.271-65.337-26.201c-36.226-12.939-72.778-26.523-81.182-30.078c-16.499-6.797-24.912-18.125-24.912-33.311
			c0-10.361,19.082-30.41,28.789-30.41c3.877,0,47.871,14.873,97.363,32.666l90.562,32.676l35.581-34.287
			c119.355-113.866,259.849-203.954,442.607-270.253c158.564-55.166,510.718-160.459,967.324-96.26
			c311.25,43.75,513.73,138.408,626.074,201.152C3876.108,8534.551,3994.262,8665.858,3994.262,8665.858"/>
	</g>
</svg>
